<svg width="87" height="87" viewBox="0 0 87 87" fill="none" xmlns="http://www.w3.org/2000/svg">
<g clip-path="url(#clip0_11_116)">
<path d="M82.1667 7.25009H30.1479V2.72609C30.1479 0.198259 28.3596 -0.741824 26.1725 0.635676L1.66749 16.0758C-0.519594 17.4533 -0.560677 19.766 1.57566 21.216L26.2619 37.9659C28.3982 39.4208 30.1455 38.5338 30.1455 36.006V31.4168H82.1667C83.4485 31.4168 84.6779 30.9075 85.5844 30.0011C86.4908 29.0947 87 27.8653 87 26.5834V12.0834C87 10.8015 86.4908 9.57217 85.5844 8.66574C84.6779 7.75932 83.4485 7.25009 82.1667 7.25009ZM0.0579894 63.2781C0.0579894 61.5212 1.26632 60.5303 2.95074 60.5303H9.98082C13.7895 60.5303 16.8659 63.0944 16.8659 66.9756C16.8659 69.5397 15.805 71.2579 13.4608 72.3575V72.43C16.5735 72.8723 19.0264 75.4702 19.0264 78.6553C19.0264 83.8198 15.5851 86.6013 10.5294 86.6013H2.98941C1.30499 86.6013 0.0604061 85.5404 0.0604061 83.8197V63.2781H0.0579894ZM5.55107 70.8543H8.40757C10.2007 70.8543 11.3728 69.7934 11.3728 67.964C11.3728 66.2409 10.0171 65.3637 8.40757 65.3637H5.55107V70.8543ZM5.55107 81.768H9.87207C11.8489 81.768 13.3134 80.6322 13.3134 78.5828C13.3134 76.8622 11.9963 75.6901 9.43224 75.6901H5.55107V81.768ZM27.8255 63.1283C28.449 61.4463 29.8797 60.0905 31.7429 60.0905C33.6883 60.0905 35.0417 61.3713 35.6603 63.1283L42.8402 83.0488C43.0626 83.6337 43.1327 84.146 43.1327 84.4046C43.1327 85.8328 41.963 86.8213 40.6072 86.8213C39.0678 86.8213 38.2993 86.0165 37.932 84.9169L36.8372 81.4756H26.6558L25.5562 84.8807C25.1937 86.0165 24.4228 86.8213 22.9221 86.8213C21.4552 86.8213 20.2106 85.7241 20.2106 84.2572C20.2106 83.6723 20.3942 83.2325 20.4667 83.0488L27.8255 63.1283ZM28.2315 76.4223H35.1891L31.7816 65.8011H31.7115L28.2315 76.4223ZM55.7283 60.0905C58.4012 60.0905 63.6018 60.9678 63.6018 64.1892C63.6018 65.5087 62.6859 66.6445 61.3302 66.6445C59.8294 66.6445 58.8023 65.3637 55.7283 65.3637C51.1874 65.3637 48.8432 69.2086 48.8432 73.6746C48.8432 78.0318 51.2237 81.768 55.7283 81.768C58.8023 81.768 60.0493 80.2286 61.5501 80.2286C63.1982 80.2286 63.9667 81.8768 63.9667 82.7178C63.9667 86.234 58.4374 87.0387 55.7283 87.0387C48.2947 87.0387 43.1327 81.1445 43.1327 73.5634C43.1327 65.9485 48.2584 60.0905 55.7283 60.0905ZM66.5332 63.0195C66.5332 61.5188 67.6328 60.3104 69.281 60.3104C70.8542 60.3104 72.0287 61.3351 72.0287 63.0195V70.9293L81.0357 61.3351C81.4392 60.8953 82.1352 60.3104 83.1599 60.3104C84.5519 60.3104 85.869 61.3713 85.869 62.947C85.869 63.8968 85.2842 64.6677 84.0758 65.876L77.1569 72.6862L85.6152 81.5094C86.4925 82.3891 87.1547 83.1938 87.1547 84.2934C87.1547 86.0141 85.7965 86.8188 84.2957 86.8188C83.2324 86.8188 82.5388 86.1953 81.5142 85.0982L72.0312 74.8443V84.1823C72.0312 85.6105 70.9316 86.8188 69.2834 86.8188C67.7102 86.8188 66.5357 85.7942 66.5357 84.1823L66.5332 63.0195Z" fill="white"/>
</g>
<defs>
<clipPath id="clip0_11_116">
<rect width="87" height="87" fill="white"/>
</clipPath>
</defs>
</svg>
