<svg width="1113" height="1080" viewBox="0 0 1113 1080" fill="none" xmlns="http://www.w3.org/2000/svg">
<rect width="898.761" height="1080" fill="#2DA6FD"/>
<path fill-rule="evenodd" clip-rule="evenodd" d="M979.1 0L996.954 45C1014.81 90 1050.51 180 1072.83 270C1095.15 360 1104.07 450 1072.83 540C1041.59 630 996.954 720 996.954 810C996.954 900 1041.59 990 1077.29 1035L1113 1080H898.761V1035C898.761 990 898.761 900 898.761 810C898.761 720 898.761 630 898.761 540C898.761 450 898.761 360 898.761 270C898.761 180 898.761 90 898.761 45V0L979.1 0Z" fill="#2DA6FD"/>
</svg>
