<svg width="308" height="308" viewBox="0 0 308 308" fill="none" xmlns="http://www.w3.org/2000/svg">
<g filter="url(#filter0_d_50_78)">
<rect x="4" width="300" height="300" rx="10" fill="white"/>
</g>
<path d="M190.667 172.458H101.333C95.1916 172.458 90.1666 167.433 90.1666 161.292V102.946C90.1666 99.3167 91.8416 95.9667 94.9125 93.7333L146 58L197.087 93.7333C200.158 95.6875 201.833 99.3167 201.833 102.946V161.292C201.833 167.433 196.808 172.458 190.667 172.458Z" fill="#78909C"/>
<path d="M118.083 60.7917H173.917V147.333H118.083V60.7917Z" fill="#AED581"/>
<path d="M115.292 58V150.125H176.708V58H115.292ZM171.125 144.542H120.875V63.5833H171.125V144.542Z" fill="#558B2F"/>
<path d="M173.917 66.3751C173.917 71.1209 173.079 74.7501 168.333 74.7501C163.587 74.7501 159.958 71.1209 159.958 66.3751C159.958 61.6292 163.587 60.7917 168.333 60.7917C173.079 60.7917 173.917 61.6292 173.917 66.3751ZM123.667 60.7917C128.412 60.7917 132.042 61.6292 132.042 66.3751C132.042 71.1209 128.412 74.7501 123.667 74.7501C118.921 74.7501 118.083 71.1209 118.083 66.3751C118.083 61.6292 118.921 60.7917 123.667 60.7917Z" fill="#558B2F"/>
<path d="M146 85.9167C149.084 85.9167 151.583 83.4169 151.583 80.3333C151.583 77.2497 149.084 74.75 146 74.75C142.916 74.75 140.417 77.2497 140.417 80.3333C140.417 83.4169 142.916 85.9167 146 85.9167Z" fill="#558B2F"/>
<path d="M146 130.583C155.251 130.583 162.75 123.084 162.75 113.833C162.75 104.582 155.251 97.0833 146 97.0833C136.749 97.0833 129.25 104.582 129.25 113.833C129.25 123.084 136.749 130.583 146 130.583Z" fill="#558B2F"/>
<path d="M190.667 172.458H101.333C95.1916 172.458 90.1666 167.433 90.1666 161.292V105.458L146 141.75L201.833 105.458V161.292C201.833 167.433 196.808 172.458 190.667 172.458Z" fill="#CFD8DC"/>
<path d="M35.12 216.8C35.12 214.603 35.6107 212.64 36.592 210.912C37.5947 209.163 38.9493 207.808 40.656 206.848C42.384 205.867 44.3147 205.376 46.448 205.376C48.944 205.376 51.1307 206.016 53.008 207.296C54.8853 208.576 56.1973 210.347 56.944 212.608H51.792C51.28 211.541 50.5547 210.741 49.616 210.208C48.6987 209.675 47.632 209.408 46.416 209.408C45.1147 209.408 43.952 209.717 42.928 210.336C41.9253 210.933 41.136 211.787 40.56 212.896C40.0053 214.005 39.728 215.307 39.728 216.8C39.728 218.272 40.0053 219.573 40.56 220.704C41.136 221.813 41.9253 222.677 42.928 223.296C43.952 223.893 45.1147 224.192 46.416 224.192C47.632 224.192 48.6987 223.925 49.616 223.392C50.5547 222.837 51.28 222.027 51.792 220.96H56.944C56.1973 223.243 54.8853 225.024 53.008 226.304C51.152 227.563 48.9653 228.192 46.448 228.192C44.3147 228.192 42.384 227.712 40.656 226.752C38.9493 225.771 37.5947 224.416 36.592 222.688C35.6107 220.96 35.12 218.997 35.12 216.8ZM59.6185 219.072C59.6185 217.28 59.9705 215.691 60.6745 214.304C61.3998 212.917 62.3705 211.851 63.5865 211.104C64.8238 210.357 66.1998 209.984 67.7145 209.984C69.0372 209.984 70.1892 210.251 71.1705 210.784C72.1732 211.317 72.9732 211.989 73.5705 212.8V210.272H78.0825V228H73.5705V225.408C72.9945 226.24 72.1945 226.933 71.1705 227.488C70.1678 228.021 69.0052 228.288 67.6825 228.288C66.1892 228.288 64.8238 227.904 63.5865 227.136C62.3705 226.368 61.3998 225.291 60.6745 223.904C59.9705 222.496 59.6185 220.885 59.6185 219.072ZM73.5705 219.136C73.5705 218.048 73.3572 217.12 72.9305 216.352C72.5038 215.563 71.9278 214.965 71.2025 214.56C70.4772 214.133 69.6985 213.92 68.8665 213.92C68.0345 213.92 67.2665 214.123 66.5625 214.528C65.8585 214.933 65.2825 215.531 64.8345 216.32C64.4078 217.088 64.1945 218.005 64.1945 219.072C64.1945 220.139 64.4078 221.077 64.8345 221.888C65.2825 222.677 65.8585 223.285 66.5625 223.712C67.2878 224.139 68.0558 224.352 68.8665 224.352C69.6985 224.352 70.4772 224.149 71.2025 223.744C71.9278 223.317 72.5038 222.72 72.9305 221.952C73.3572 221.163 73.5705 220.224 73.5705 219.136ZM89.242 228.288C87.7913 228.288 86.49 228.032 85.338 227.52C84.186 226.987 83.2687 226.272 82.586 225.376C81.9247 224.48 81.562 223.488 81.498 222.4H86.01C86.0953 223.083 86.426 223.648 87.002 224.096C87.5993 224.544 88.3353 224.768 89.21 224.768C90.0633 224.768 90.7247 224.597 91.194 224.256C91.6847 223.915 91.93 223.477 91.93 222.944C91.93 222.368 91.6313 221.941 91.034 221.664C90.458 221.365 89.53 221.045 88.25 220.704C86.9273 220.384 85.8393 220.053 84.986 219.712C84.154 219.371 83.4287 218.848 82.81 218.144C82.2127 217.44 81.914 216.491 81.914 215.296C81.914 214.315 82.1913 213.419 82.746 212.608C83.322 211.797 84.1327 211.157 85.178 210.688C86.2447 210.219 87.4927 209.984 88.922 209.984C91.034 209.984 92.7193 210.517 93.978 211.584C95.2367 212.629 95.93 214.048 96.058 215.84H91.77C91.706 215.136 91.4073 214.581 90.874 214.176C90.362 213.749 89.6687 213.536 88.794 213.536C87.9833 213.536 87.354 213.685 86.906 213.984C86.4793 214.283 86.266 214.699 86.266 215.232C86.266 215.829 86.5647 216.288 87.162 216.608C87.7593 216.907 88.6873 217.216 89.946 217.536C91.226 217.856 92.282 218.187 93.114 218.528C93.946 218.869 94.6607 219.403 95.258 220.128C95.8767 220.832 96.1967 221.771 96.218 222.944C96.218 223.968 95.93 224.885 95.354 225.696C94.7993 226.507 93.9887 227.147 92.922 227.616C91.8767 228.064 90.65 228.288 89.242 228.288ZM109.88 210.016C111.224 210.016 112.418 210.315 113.464 210.912C114.509 211.488 115.32 212.352 115.896 213.504C116.493 214.635 116.792 216 116.792 217.6V228H112.312V218.208C112.312 216.8 111.96 215.723 111.256 214.976C110.552 214.208 109.592 213.824 108.376 213.824C107.138 213.824 106.157 214.208 105.432 214.976C104.728 215.723 104.376 216.8 104.376 218.208V228H99.8955V204.32H104.376V212.48C104.952 211.712 105.72 211.115 106.68 210.688C107.64 210.24 108.706 210.016 109.88 210.016ZM144.965 212.576C144.965 213.771 144.677 214.891 144.101 215.936C143.546 216.981 142.661 217.824 141.445 218.464C140.25 219.104 138.735 219.424 136.901 219.424H133.157V228H128.677V205.664H136.901C138.629 205.664 140.101 205.963 141.317 206.56C142.533 207.157 143.439 207.979 144.037 209.024C144.655 210.069 144.965 211.253 144.965 212.576ZM136.709 215.808C137.946 215.808 138.863 215.531 139.461 214.976C140.058 214.4 140.357 213.6 140.357 212.576C140.357 210.4 139.141 209.312 136.709 209.312H133.157V215.808H136.709ZM146.993 219.072C146.993 217.28 147.345 215.691 148.049 214.304C148.775 212.917 149.746 211.851 150.962 211.104C152.199 210.357 153.575 209.984 155.09 209.984C156.412 209.984 157.564 210.251 158.546 210.784C159.548 211.317 160.348 211.989 160.946 212.8V210.272H165.458V228H160.946V225.408C160.37 226.24 159.57 226.933 158.546 227.488C157.543 228.021 156.38 228.288 155.058 228.288C153.564 228.288 152.199 227.904 150.962 227.136C149.746 226.368 148.775 225.291 148.049 223.904C147.345 222.496 146.993 220.885 146.993 219.072ZM160.946 219.136C160.946 218.048 160.732 217.12 160.306 216.352C159.879 215.563 159.303 214.965 158.578 214.56C157.852 214.133 157.074 213.92 156.242 213.92C155.41 213.92 154.642 214.123 153.938 214.528C153.234 214.933 152.658 215.531 152.21 216.32C151.783 217.088 151.57 218.005 151.57 219.072C151.57 220.139 151.783 221.077 152.21 221.888C152.658 222.677 153.234 223.285 153.938 223.712C154.663 224.139 155.431 224.352 156.242 224.352C157.074 224.352 157.852 224.149 158.578 223.744C159.303 223.317 159.879 222.72 160.306 221.952C160.732 221.163 160.946 220.224 160.946 219.136ZM186.793 210.272L175.817 236.384H171.049L174.889 227.552L167.785 210.272H172.809L177.385 222.656L182.025 210.272H186.793ZM211.224 210.016C213.4 210.016 215.149 210.688 216.472 212.032C217.816 213.355 218.488 215.211 218.488 217.6V228H214.008V218.208C214.008 216.821 213.656 215.765 212.952 215.04C212.248 214.293 211.288 213.92 210.072 213.92C208.856 213.92 207.885 214.293 207.16 215.04C206.456 215.765 206.104 216.821 206.104 218.208V228H201.624V218.208C201.624 216.821 201.272 215.765 200.568 215.04C199.864 214.293 198.904 213.92 197.688 213.92C196.451 213.92 195.469 214.293 194.744 215.04C194.04 215.765 193.688 216.821 193.688 218.208V228H189.208V210.272H193.688V212.416C194.264 211.669 195 211.083 195.896 210.656C196.813 210.229 197.816 210.016 198.904 210.016C200.291 210.016 201.528 210.315 202.616 210.912C203.704 211.488 204.547 212.32 205.144 213.408C205.72 212.384 206.552 211.563 207.64 210.944C208.749 210.325 209.944 210.016 211.224 210.016ZM239.219 218.752C239.219 219.392 239.177 219.968 239.091 220.48H226.131C226.238 221.76 226.686 222.763 227.475 223.488C228.265 224.213 229.235 224.576 230.387 224.576C232.051 224.576 233.235 223.861 233.939 222.432H238.771C238.259 224.139 237.278 225.547 235.827 226.656C234.377 227.744 232.595 228.288 230.483 228.288C228.777 228.288 227.241 227.915 225.875 227.168C224.531 226.4 223.475 225.323 222.707 223.936C221.961 222.549 221.587 220.949 221.587 219.136C221.587 217.301 221.961 215.691 222.707 214.304C223.454 212.917 224.499 211.851 225.843 211.104C227.187 210.357 228.734 209.984 230.483 209.984C232.169 209.984 233.673 210.347 234.995 211.072C236.339 211.797 237.374 212.832 238.099 214.176C238.846 215.499 239.219 217.024 239.219 218.752ZM234.579 217.472C234.558 216.32 234.142 215.403 233.331 214.72C232.521 214.016 231.529 213.664 230.355 213.664C229.246 213.664 228.307 214.005 227.539 214.688C226.793 215.349 226.334 216.277 226.163 217.472H234.579ZM252.313 210.016C254.425 210.016 256.132 210.688 257.433 212.032C258.735 213.355 259.385 215.211 259.385 217.6V228H254.905V218.208C254.905 216.8 254.553 215.723 253.849 214.976C253.145 214.208 252.185 213.824 250.969 213.824C249.732 213.824 248.751 214.208 248.025 214.976C247.321 215.723 246.969 216.8 246.969 218.208V228H242.489V210.272H246.969V212.48C247.567 211.712 248.324 211.115 249.241 210.688C250.18 210.24 251.204 210.016 252.313 210.016ZM268.862 213.952V222.528C268.862 223.125 269 223.563 269.278 223.84C269.576 224.096 270.067 224.224 270.75 224.224H272.83V228H270.014C266.238 228 264.35 226.165 264.35 222.496V213.952H262.238V210.272H264.35V205.888H268.862V210.272H272.83V213.952H268.862Z" fill="#1A1C1E"/>
<defs>
<filter id="filter0_d_50_78" x="0" y="0" width="308" height="308" filterUnits="userSpaceOnUse" color-interpolation-filters="sRGB">
<feFlood flood-opacity="0" result="BackgroundImageFix"/>
<feColorMatrix in="SourceAlpha" type="matrix" values="0 0 0 0 0 0 0 0 0 0 0 0 0 0 0 0 0 0 127 0" result="hardAlpha"/>
<feOffset dy="4"/>
<feGaussianBlur stdDeviation="2"/>
<feComposite in2="hardAlpha" operator="out"/>
<feColorMatrix type="matrix" values="0 0 0 0 0 0 0 0 0 0 0 0 0 0 0 0 0 0 0.25 0"/>
<feBlend mode="normal" in2="BackgroundImageFix" result="effect1_dropShadow_50_78"/>
<feBlend mode="normal" in="SourceGraphic" in2="effect1_dropShadow_50_78" result="shape"/>
</filter>
</defs>
</svg>
