<svg width="308" height="308" viewBox="0 0 308 308" fill="none" xmlns="http://www.w3.org/2000/svg">
<g filter="url(#filter0_d_52_89)">
<rect x="4" width="300" height="300" rx="10" fill="white"/>
</g>
<path d="M212.75 225.188H94.75C86.6375 225.188 80 218.55 80 210.438V133.369C80 128.575 82.2125 124.15 86.2687 121.2L153.75 74L221.231 121.2C225.287 123.781 227.5 128.575 227.5 133.369V210.438C227.5 218.55 220.863 225.188 212.75 225.188Z" fill="#78909C"/>
<path d="M116.875 77.6875H190.625V192H116.875V77.6875Z" fill="#AED581"/>
<path d="M113.188 74V195.688H194.312V74H113.188ZM186.938 188.312H120.562V81.375H186.938V188.312Z" fill="#558B2F"/>
<path d="M190.625 85.0625C190.625 91.3313 189.519 96.125 183.25 96.125C176.981 96.125 172.188 91.3313 172.188 85.0625C172.188 78.7937 176.981 77.6875 183.25 77.6875C189.519 77.6875 190.625 78.7937 190.625 85.0625ZM124.25 77.6875C130.519 77.6875 135.312 78.7937 135.312 85.0625C135.312 91.3313 130.519 96.125 124.25 96.125C117.981 96.125 116.875 91.3313 116.875 85.0625C116.875 78.7937 117.981 77.6875 124.25 77.6875Z" fill="#558B2F"/>
<path d="M153.75 110.875C157.823 110.875 161.125 107.573 161.125 103.5C161.125 99.4269 157.823 96.125 153.75 96.125C149.677 96.125 146.375 99.4269 146.375 103.5C146.375 107.573 149.677 110.875 153.75 110.875Z" fill="#558B2F"/>
<path d="M153.75 169.875C165.969 169.875 175.875 159.969 175.875 147.75C175.875 135.531 165.969 125.625 153.75 125.625C141.531 125.625 131.625 135.531 131.625 147.75C131.625 159.969 141.531 169.875 153.75 169.875Z" fill="#558B2F"/>
<path d="M212.75 225.188H94.75C86.6375 225.188 80 218.55 80 210.438V136.688L153.75 184.625L227.5 136.688V210.438C227.5 218.55 220.863 225.188 212.75 225.188Z" fill="#CFD8DC"/>
<defs>
<filter id="filter0_d_52_89" x="0" y="0" width="308" height="308" filterUnits="userSpaceOnUse" color-interpolation-filters="sRGB">
<feFlood flood-opacity="0" result="BackgroundImageFix"/>
<feColorMatrix in="SourceAlpha" type="matrix" values="0 0 0 0 0 0 0 0 0 0 0 0 0 0 0 0 0 0 127 0" result="hardAlpha"/>
<feOffset dy="4"/>
<feGaussianBlur stdDeviation="2"/>
<feComposite in2="hardAlpha" operator="out"/>
<feColorMatrix type="matrix" values="0 0 0 0 0 0 0 0 0 0 0 0 0 0 0 0 0 0 0.25 0"/>
<feBlend mode="normal" in2="BackgroundImageFix" result="effect1_dropShadow_52_89"/>
<feBlend mode="normal" in="SourceGraphic" in2="effect1_dropShadow_52_89" result="shape"/>
</filter>
</defs>
</svg>
