<svg width="172" height="60" viewBox="0 0 172 60" fill="none" xmlns="http://www.w3.org/2000/svg">
<path d="M88 16.08V20.6H76.36V27.76H85.28V32.2H76.36V44H70.76V16.08H88ZM109.091 38.68H97.9709L96.1309 44H90.2509L100.291 16.04H106.811L116.851 44H110.931L109.091 38.68ZM107.571 34.2L103.531 22.52L99.4909 34.2H107.571ZM141.404 48.92L137.164 43.84C135.99 44.1333 134.79 44.28 133.564 44.28C130.95 44.28 128.55 43.6667 126.364 42.44C124.177 41.2133 122.444 39.52 121.164 37.36C119.884 35.1733 119.244 32.7067 119.244 29.96C119.244 27.24 119.884 24.8 121.164 22.64C122.444 20.4533 124.177 18.7467 126.364 17.52C128.55 16.2933 130.95 15.68 133.564 15.68C136.204 15.68 138.604 16.2933 140.764 17.52C142.95 18.7467 144.67 20.4533 145.924 22.64C147.204 24.8 147.844 27.24 147.844 29.96C147.844 32.44 147.31 34.7067 146.244 36.76C145.204 38.7867 143.777 40.44 141.964 41.72L148.364 48.92H141.404ZM125.004 29.96C125.004 31.8267 125.364 33.4667 126.084 34.88C126.804 36.2933 127.804 37.3867 129.084 38.16C130.39 38.9067 131.884 39.28 133.564 39.28C135.244 39.28 136.724 38.9067 138.004 38.16C139.284 37.3867 140.284 36.2933 141.004 34.88C141.724 33.4667 142.084 31.8267 142.084 29.96C142.084 28.0933 141.724 26.4667 141.004 25.08C140.284 23.6667 139.284 22.5867 138.004 21.84C136.724 21.0933 135.244 20.72 133.564 20.72C131.884 20.72 130.39 21.0933 129.084 21.84C127.804 22.5867 126.804 23.6667 126.084 25.08C125.364 26.4667 125.004 28.0933 125.004 29.96ZM160.568 44.36C158.755 44.36 157.128 44.04 155.688 43.4C154.248 42.7333 153.101 41.84 152.248 40.72C151.421 39.6 150.968 38.36 150.888 37H156.528C156.635 37.8533 157.048 38.56 157.768 39.12C158.515 39.68 159.435 39.96 160.528 39.96C161.595 39.96 162.421 39.7467 163.008 39.32C163.621 38.8933 163.928 38.3467 163.928 37.68C163.928 36.96 163.555 36.4267 162.808 36.08C162.088 35.7067 160.928 35.3067 159.328 34.88C157.675 34.48 156.315 34.0667 155.248 33.64C154.208 33.2133 153.301 32.56 152.528 31.68C151.781 30.8 151.408 29.6133 151.408 28.12C151.408 26.8933 151.755 25.7733 152.448 24.76C153.168 23.7467 154.181 22.9467 155.488 22.36C156.821 21.7733 158.381 21.48 160.168 21.48C162.808 21.48 164.915 22.1467 166.488 23.48C168.061 24.7867 168.928 26.56 169.088 28.8H163.728C163.648 27.92 163.275 27.2267 162.608 26.72C161.968 26.1867 161.101 25.92 160.008 25.92C158.995 25.92 158.208 26.1067 157.648 26.48C157.115 26.8533 156.848 27.3733 156.848 28.04C156.848 28.7867 157.221 29.36 157.968 29.76C158.715 30.1333 159.875 30.52 161.448 30.92C163.048 31.32 164.368 31.7333 165.408 32.16C166.448 32.5867 167.341 33.2533 168.088 34.16C168.861 35.04 169.261 36.2133 169.288 37.68C169.288 38.96 168.928 40.1067 168.208 41.12C167.515 42.1333 166.501 42.9333 165.168 43.52C163.861 44.08 162.328 44.36 160.568 44.36Z" fill="white"/>
<path d="M25.6666 41.6665H30.3333V27.6665H25.6666V41.6665ZM28 22.9998C28.6611 22.9998 29.2156 22.7758 29.6636 22.3278C30.1116 21.8798 30.3348 21.3261 30.3333 20.6665C30.3333 20.0054 30.1093 19.4508 29.6613 19.0028C29.2133 18.5548 28.6595 18.3316 28 18.3332C27.3388 18.3332 26.7843 18.5572 26.3363 19.0052C25.8883 19.4532 25.6651 20.0069 25.6666 20.6665C25.6666 21.3276 25.8906 21.8822 26.3386 22.3302C26.7866 22.7782 27.3404 23.0014 28 22.9998ZM28 53.3332C24.7722 53.3332 21.7388 52.7203 18.9 51.4945C16.0611 50.2687 13.5916 48.6066 11.4916 46.5082C9.39163 44.4082 7.72952 41.9387 6.50529 39.0998C5.28107 36.2609 4.66818 33.2276 4.66663 29.9998C4.66663 26.7721 5.27952 23.7387 6.50529 20.8998C7.73107 18.0609 9.39318 15.5915 11.4916 13.4915C13.5916 11.3915 16.0611 9.72939 18.9 8.50517C21.7388 7.28095 24.7722 6.66806 28 6.6665C31.2277 6.6665 34.2611 7.27939 37.1 8.50517C39.9388 9.73095 42.4083 11.3931 44.5083 13.4915C46.6083 15.5915 48.2712 18.0609 49.497 20.8998C50.7227 23.7387 51.3348 26.7721 51.3333 29.9998C51.3333 33.2276 50.7204 36.2609 49.4946 39.0998C48.2688 41.9387 46.6067 44.4082 44.5083 46.5082C42.4083 48.6082 39.9388 50.2711 37.1 51.4968C34.2611 52.7226 31.2277 53.3347 28 53.3332Z" fill="white"/>
</svg>
