<svg width="276" height="281" viewBox="0 0 276 281" fill="none" xmlns="http://www.w3.org/2000/svg">
<path d="M272.5 140.47C272.5 216.057 212.229 277.234 138 277.234C63.7712 277.234 3.5 216.057 3.5 140.47C3.5 64.8825 63.7712 3.70483 138 3.70483C212.229 3.70483 272.5 64.8825 272.5 140.47Z" fill="white" stroke="#1A1C1E" stroke-width="7"/>
<path d="M187.4 131.957C189.567 131.957 191.598 132.369 193.494 133.193C195.39 134.017 197.042 135.143 198.45 136.571C199.858 137.999 200.969 139.674 201.781 141.596C202.594 143.519 203 145.578 203 147.775V179.411C203 185.947 201.781 192.098 199.344 197.865C196.906 203.632 193.548 208.658 189.269 212.942C184.99 217.226 180.033 220.603 174.4 223.075C168.767 225.546 162.7 226.81 156.2 226.865C148.4 226.865 141.142 225.354 134.425 222.333C127.708 219.313 121.588 215.029 116.063 209.481L77.7125 170.596C76.1958 169.058 75.0313 167.273 74.2188 165.241C73.4063 163.209 73 161.121 73 158.979C73 156.673 73.4333 154.531 74.3 152.553C75.1667 150.576 76.3312 148.819 77.7937 147.281C79.2562 145.743 80.9625 144.59 82.9125 143.821C84.8625 143.052 86.975 142.612 89.25 142.502C93.6917 142.502 97.5104 144.123 100.706 147.363L109.4 156.096V128.415C106.204 126.877 103.333 124.955 100.787 122.648C98.2417 120.341 96.075 117.732 94.2875 114.821C92.5 111.91 91.0917 108.78 90.0625 105.429C89.0333 102.079 88.5458 98.6188 88.6 95.0488C88.6 89.9409 89.5479 85.1626 91.4437 80.7138C93.3396 76.2651 95.9396 72.338 99.2437 68.9328C102.548 65.5276 106.394 62.8912 110.781 61.0239C115.169 59.1565 119.908 58.1953 125 58.1404C130.037 58.1404 134.75 59.1015 139.137 61.0239C143.525 62.9462 147.398 65.5825 150.756 68.9328C154.115 72.2831 156.715 76.1827 158.556 80.6314C160.398 85.0802 161.346 89.886 161.4 95.0488C161.4 100.157 160.398 105.045 158.394 109.713C156.39 114.382 153.546 118.474 149.862 121.989C151.758 122.483 153.465 123.307 154.981 124.46C156.498 125.614 157.825 127.042 158.962 128.744C161.4 127.371 163.946 126.685 166.6 126.685C169.308 126.685 171.827 127.316 174.156 128.579C176.485 129.843 178.354 131.655 179.762 134.017C182.2 132.644 184.746 131.957 187.4 131.957ZM99 95.0488C99 99.168 99.9208 103.095 101.762 106.83C103.604 110.565 106.15 113.668 109.4 116.139V95.0488C109.4 92.8519 109.806 90.7922 110.619 88.8699C111.431 86.9476 112.542 85.2725 113.95 83.8445C115.358 82.4165 117.01 81.2905 118.906 80.4667C120.802 79.6428 122.833 79.2309 125 79.2309C127.167 79.2309 129.198 79.6428 131.094 80.4667C132.99 81.2905 134.642 82.4165 136.05 83.8445C137.458 85.2725 138.569 86.9476 139.381 88.8699C140.194 90.7922 140.6 92.8519 140.6 95.0488V116.139C143.85 113.668 146.396 110.565 148.237 106.83C150.079 103.095 151 99.168 151 95.0488C151 91.4239 150.323 88.0186 148.969 84.8331C147.615 81.6475 145.746 78.8739 143.362 76.5122C140.979 74.1505 138.217 72.2557 135.075 70.8277C131.933 69.3996 128.575 68.6856 125 68.6856C121.425 68.6856 118.067 69.3722 114.925 70.7453C111.783 72.1183 109.021 74.0132 106.637 76.4298C104.254 78.8464 102.385 81.6475 101.031 84.8331C99.6771 88.0186 99 91.4239 99 95.0488ZM192.6 147.775C192.6 146.347 192.085 145.111 191.056 144.068C190.027 143.024 188.808 142.502 187.4 142.502C185.558 142.502 184.285 143.024 183.581 144.068C182.877 145.111 182.444 146.402 182.281 147.94C182.119 149.478 182.092 151.18 182.2 153.048C182.308 154.915 182.308 156.59 182.2 158.073C182.092 159.556 181.658 160.874 180.9 162.028C180.142 163.181 178.842 163.703 177 163.593C174.996 163.593 173.642 162.961 172.938 161.698C172.233 160.435 171.8 158.787 171.637 156.755C171.475 154.723 171.529 152.608 171.8 150.411C172.071 148.215 172.125 146.1 171.962 144.068C171.8 142.036 171.394 140.415 170.744 139.207C170.094 137.999 168.713 137.34 166.6 137.23C164.758 137.23 163.485 137.752 162.781 138.795C162.077 139.839 161.644 141.129 161.481 142.667C161.319 144.205 161.292 145.908 161.4 147.775C161.508 149.643 161.508 151.318 161.4 152.801C161.292 154.284 160.858 155.602 160.1 156.755C159.342 157.908 158.042 158.43 156.2 158.32C154.196 158.32 152.842 157.689 152.137 156.426C151.433 155.162 151 153.515 150.837 151.482C150.675 149.45 150.729 147.336 151 145.139C151.271 142.942 151.325 140.827 151.162 138.795C151 136.763 150.594 135.143 149.944 133.934C149.294 132.726 147.912 132.067 145.8 131.957C143.958 131.957 142.685 132.479 141.981 133.523C141.277 134.566 140.844 135.857 140.681 137.395C140.519 138.932 140.492 140.635 140.6 142.502C140.708 144.37 140.708 146.045 140.6 147.528C140.492 149.011 140.058 150.329 139.3 151.482C138.542 152.636 137.242 153.158 135.4 153.048C133.992 153.048 132.773 152.526 131.744 151.482C130.715 150.439 130.2 149.203 130.2 147.775V95.0488C130.2 93.6208 129.685 92.385 128.656 91.3415C127.627 90.2979 126.408 89.7762 125 89.7762C123.592 89.7762 122.373 90.2979 121.344 91.3415C120.315 92.385 119.8 93.6208 119.8 95.0488L119.8 159.886C119.8 161.149 119.583 162.302 119.15 163.346C118.717 164.389 118.094 165.351 117.281 166.229C116.469 167.108 115.521 167.74 114.438 168.124C113.354 168.509 112.217 168.756 111.025 168.866C109.833 168.866 108.696 168.646 107.612 168.207C106.529 167.767 105.527 167.108 104.606 166.229L93.3125 154.778C92.175 153.624 90.8208 153.048 89.25 153.048C87.6792 153.048 86.325 153.624 85.1875 154.778C84.05 155.931 83.4542 157.332 83.4 158.979C83.4 160.572 83.9688 161.945 85.1062 163.099L123.456 202.067C128.006 206.68 132.99 210.195 138.406 212.612C143.823 215.029 149.754 216.264 156.2 216.319C161.237 216.319 165.95 215.358 170.337 213.436C174.725 211.514 178.571 208.877 181.875 205.527C185.179 202.177 187.779 198.277 189.675 193.828C191.571 189.379 192.546 184.574 192.6 179.411V147.775Z" fill="#1A1C1E"/>
</svg>
